<svg xmlns="http://www.w3.org/2000/svg" viewBox="0 0 1000 560" preserveAspectRatio="xMidYMid meet">
  <path d="M125.957,378.087L140.121,349.402L141.994,332.988L150.001,325.294L166.303,310.709L177.674,302.589L181.123,300.537L186.818,296.544L192.108,273.313L189.132,251.799L197.108,242.711L204.594,241.245L215.816,236.417L224.326,233.375L227.601,227.119L231.118,224.945L238.105,220.821L237.119,220.542L236.36,219.726L235.772,219.198L235.282,219.124L233.764,216.522L235.653,214.483L236.273,212.494L238.352,211.254L241.102,211.083L242.765,208.659L242.502,206.139L244.878,204.051L248.459,202.52L252.559,201.001L255.255,198.66L258.609,195.908L260.789,194.02L260.996,191.671L259.307,190.717L259.669,190.003L262.682,188.288L263.706,186.904L265.008,186.612L265.667,184.182L266.988,182.11L268.471,180.92L270.402,179.488L273.948,176.83L275.816,175.169L278.13,172.704L277.844,170.301L278.439,167.254L278.095,164.333L277.06,161.821L278.204,159.493L281.887,159.525L283.646,158.577L286.576,158.175L288.498,156.737L288.668,152.168L292.697,150.193L296.435,147.467L295.764,145.19L294.474,140.977L290.015,138.764L283.527,141.299L278.841,142.176L273.762,143.188L268.923,142.4L266.133,143.914L267.226,137.999L271.791,132.505L276.643,126.44L285.149,119.405L284.741,112.475L289.927,105.074L298.803,107.778L308.21,105.917L320.386,107.859L322.037,108.053L317.706,114.356L317.848,114.664L317.937,115.011L317.918,115.268L317.963,115.589L317.945,116.123L317.677,116.448L317.814,116.768L321.338,122.662L325.137,121.84L330.418,125.905L333.393,124.868L335.133,123.516L336.762,122.708L338.138,122.868L339.264,122.058L341.044,121.959L342.557,121.874L343.508,121.603L344.5,121.123L345.438,121.164L346.215,121.783L346.944,122.434L347.997,122.778L349.239,122.875L350.304,123.078L351.37,123.125L352.205,123.17L354.646,123.082L358.903,120.788L361.407,117.887L366.137,113.435L360.491,109.871L368.446,110.551L373.182,108.898L374.81,103.104L378.582,100.425L378.146,97.745L373.693,95.681L374.25,95.24L374.634,94.742L375.288,94.409L383.915,88.708L395.337,85.636L407.399,80.028L405.735,88.422L398.832,90.243L399.369,93.134L401.866,94.529L407.5,97.675L417.067,94.638L420.769,92.801L424,91.893L426.995,88.949L429.224,83.638L431.982,83.969L435.654,84.07L440.364,83.144L444.854,86.991L444.589,90.49L446.85,93.898L451.053,94.732L452.86,91.528L456.927,91.803L461.923,91.845L464.397,93.061L469.077,91.588L471.019,89.679L473.032,89.573L476.777,90.934L478.619,86.465L481.29,84.41L484.315,84.473L484.849,82.697L487.384,81.38L489.59,81.617L492.605,79.125L495.262,75.265L498.458,75.371L499.66,78.435L501.513,77.757L504.419,76.634L506.624,77.8L509.552,77.27L512.488,79.144L513.404,83.928L517.064,87.28L522.216,87.893L526.168,88.672L528.411,87.24L532.846,87.719L538.767,87.855L543.014,86.421L546.407,84.462L541.95,84.349L541.991,79.391L543.919,76.572L549.885,73.838L551.907,71.917L555.849,73.71L559.347,75.887L558.873,79.304L563.772,78.677L564.905,73.962L564.235,69.429L566.186,66.722L566.379,69.562L566.257,70.704L570.029,66.755L565.147,61.508L558.678,62.698L554.774,65.605L553.377,68.108L547.281,68.285L544.552,68.122L542.811,70.313L538.776,66.156L531.744,59.992L533.07,52.132L538.145,48.496L539.958,43.344L541.882,40.51L544.593,36.483L551.211,35.924L559.602,34.03L558.517,28L566.685,28.037L568.464,34.3L572.787,37.808L573.194,29.967L577.987,32.063L579.988,37.155L583.434,38.171L588.565,42.422L586.581,48.978L587.292,56.326L591.35,56.848L594.788,58.83L597.653,60.715L599.132,58.176L599.478,55.037L595.323,52.927L595.688,48.585L600.743,44.752L603.781,50.443L609.375,53.208L612.15,54.072L610.346,55.423L609.428,57.376L612.092,61.766L614.27,66.316L617.111,67.825L619.218,67.048L621.808,66.034L624.59,65.613L626.676,64.125L630.206,62.467L632.139,60.997L637.232,58.214L641.438,58.51L648.048,59.978L651.087,59.812L654.508,62.176L657.173,63.144L659.012,63.7L661.822,63.219L679.185,65.119L737.815,115.094L739.708,115.441L740.868,113.837L748.892,118.049L746.607,122.552L749.582,132.557L744.512,140.248L736.883,152.853L730.546,160.433L726.785,165.397L721.275,195.438L717.007,217.157L721.992,219.751L728.423,217.474L730.532,219.178L732.355,221.48L735.201,220.539L737.738,219.499L739.938,218.533L740.978,219.478L742.159,220.45L743.687,220.89L746.08,220.271L746.529,219.006L747.385,218.913L748.957,219.253L749.814,218.914L751.356,218.852L752.777,218.223L753.817,219.623L755.111,220.328L757.698,220.619L757.587,221.906L759.21,222.651L760.075,222.953L761.402,223.023L762.772,223.353L763.702,223.514L764.459,224.502L766.115,224.5L767.122,224.53L768.235,224.199L769.685,224.279L771.12,224.722L772.099,225.726L773.001,226.397L773.974,226.98L774.84,227.909L775.491,228.313L776.418,228.386L777.511,228.911L778.059,229.462L778.975,230.371L779.598,230.616L780.342,230.909L782.71,229.886L784.471,228.418L786.046,228.588L787.143,228.814L787.51,229.462L787.021,230.124L786.01,231.678L788.574,233.701L789.269,235.032L789.603,236.41L788.929,237.373L788.248,238.27L788.068,239.349L787.46,240.354L786.742,241.505L786.3,242.944L786.876,244.51L787.253,245.505L786.803,246.643L787.026,248.038L787.37,249.265L787.241,249.811L787.565,250.635L788.542,251.195L789.778,251.508L790.661,252.028L792.839,253.069L794.085,254.132L795.855,255.251L797.529,256.174L799.156,256.332L800.162,255.895L801.559,255.733L802.472,256.411L803.687,255.889L805.01,255.996L805.548,258.035L806.503,258.693L807.616,258.998L808.823,259.698L810.063,259.495L811.241,259.41L812.339,260.267L813.36,261.296L814.148,262.698L815.023,262.962L815.794,264.361L817.201,265.439L817.42,266.697L817.299,268.206L818.582,269.401L822.074,269.435L823.384,269.573L824.449,271.347L825.556,272.987L826.902,274.473L828.297,274.005L829.264,273.072L830.18,272.774L831.516,272.897L832.959,272.818L833.793,271.996L835.018,272.117L837.963,272.013L838.899,271.375L840.015,270.918L840.496,269.885L841.686,268.977L842.349,268.066L843.958,268.497L846.881,267.974L848.632,267.257L848.989,265.389L849.193,264.369L849.209,263.318L848.015,262.053L847.928,261.121L848.044,260.252L848.9,259.281L849.454,256.885L849.723,255.525L850.339,254.022L850.445,252.293L860.149,254.233L863.384,253.13L863.592,251.758L862.461,250.579L861.999,248.105L863.325,246.48L865.734,244.639L866.018,242.602L868.074,238.665L868.626,237.135L869.843,236.208L870.976,236.241L872.255,236.278L873.82,235.731L875.023,234.393L878.365,236.423L879.548,237.638L880.069,238.282L880.785,238.789L881.408,239.112L881.908,239.55L882.487,240.158L882.723,241.114L882.548,241.96L882.002,242.815L881.965,243.767L882.208,244.59L883.451,245.286L884.644,245.527L885.561,245.905L886.831,246.229L887.808,246.34L888.645,246.933L890.024,247.738L891.013,248.739L892.079,249.353L893.166,249.718L893.197,252.25L892.966,255.3L891.647,257.749L890.756,261.296L890.387,272.63L889.526,273.907L889.502,275.327L888.048,277.18L887.864,279.243L887.927,281.08L887.072,283.238L883.607,285.695L882.04,288.098L883.906,290.336L885.214,292.745L885.478,296.112L880.145,300.195L878.956,301.284L879.345,302.975L880.414,304.897L881.117,306.614L880.608,308.234L878.935,309.1L876.344,313.348L875.325,314.759L876.22,316.623L876.439,318.329L876.591,319.606L876.591,321.355L877.518,323.23L878.232,325.229L887.504,326.21L893.797,332.929L893.102,335.703L892.698,337.871L892.866,339.825L892.443,341.683L891.428,343.52L891.02,345.268L891.145,347.3L890.438,349.31L889.064,350.512L882.179,349.118L880.621,348.088L879.501,348.582L878.42,349.359L876.425,349.343L873.926,347.916L871.557,346.918L869.554,346.968L868.215,349.537L866.566,349.351L864.101,348.461L862.208,348.736L860.356,348.39L859.926,346.204L858.737,344.429L858.118,343.068L856.55,342.62L854.912,341.496L851.041,341.379L850.501,338.605L851.114,336.852L852.204,334.85L852.624,332.146L848.489,327.581L846.642,329.818L836.134,331.689L834.581,332.21L833.106,332.949L831.952,333.722L830.286,334.255L828.086,333.809L826.105,333.159L825.907,335.245L825.376,336.872L825.996,338.525L826.024,339.702L824.53,341.507L822.219,341.951L822.972,344.369L821.124,345.866L819.292,348.976L816.515,350.152L816.993,352.365L817.241,353.778L817.772,355.939L816.699,358.153L816.081,359.988L816.559,361.578L816.872,364.044L815.955,366.361L817.304,367.946L817.801,370.02L815.716,373.026L816.005,375.619L818.475,377.311L819.069,379.093L822.382,379.744L823.24,380.824L824.887,380.633L826.38,379.889L828.145,379.508L829.351,378.758L830.888,378.193L832.383,378.956L833.925,380.125L834.355,382.874L836.687,382.925L837.315,384.447L836.685,386.507L836.808,387.961L836.572,389.371L835.524,390.003L833.449,389.699L832.137,390.522L830.943,391.505L830.484,393.276L830.643,394.658L830.453,396.214L828.573,397.72L827.22,398.487L827.099,400.464L826.743,402.163L827.243,403.915L828.245,406.173L829.183,408.149L830.808,409.202L832.293,410.077L832.587,411.465L834.201,412.731L835.36,413.432L835.437,415.172L836.561,416.724L836.865,418.609L838.172,419.661L838.93,421.609L824.552,429.498L821.872,431.04L818.632,430.256L816.994,429.577L816.314,428.589L817.662,427.681L817.851,425.919L818.716,424.652L818.636,423.04L818.461,421.554L817.885,419.76L816.323,418.989L815.043,417.921L813.726,417.172L812.169,416.748L810.928,416.395L809.572,416.039L807.526,414.12L807.848,411.799L808.55,410.44L807.856,409.431L808.267,407.923L807.068,407.325L805.568,405.969L805.657,403.967L806.546,402.241L807.501,399.665L806.703,398.23L804.645,397.145L803.647,396.382L801.104,392.038L798.279,392.056L796.299,394.456L794.317,393.497L792.336,391.021L790.728,392.079L789.291,392.674L788.162,393.365L787.518,394.265L785.457,395.484L783.263,395.444L781.67,395.812L780.333,395.875L779.021,396.736L777.095,398.698L775.139,399.454L773.158,400.378L770.977,401.165L769.648,402.622L767.441,401.749L765.75,399.902L764.229,398.859L763.011,398.756L760.434,400.951L760.528,403.532L759.426,404.923L760.14,406.041L760.751,407.479L760.371,409.004L759.433,409.943L758.966,412.479L757.454,413.397L756.371,413.474L754.864,412.971L753.205,412.226L751.984,410.667L750.437,412.218L748.915,412.75L747.681,413.36L746.533,414.397L744.64,414.831L742.952,414.446L741.496,413.833L740.152,412.851L738.234,412.756L736.847,412.702L735.586,412.615L734.306,411.702L732.96,410.984L732.108,410.196L730.948,409.989L728.35,409.357L726.725,407.327L725.193,405.099L723.864,403.049L723.489,401.3L722.979,398.972L721.682,397.322L719.578,394.793L717.529,393.598L716.065,392.979L715.063,391.43L715.561,389.669L715.751,388.446L715.509,386.241L715.106,384.467L714.727,382.97L713.643,381.478L713.874,378.995L714.048,376.991L714.504,374.403L714.384,371.504L715.103,369.671L715.27,367.839L712.748,365.437L714.982,361.933L713.97,359.083L709.033,363.033L708.664,364.495L708.345,365.992L707.639,367.624L706.747,368.754L705.302,369.069L703.151,367.994L702.071,366.589L700.854,365.077L699.47,363.72L698.685,362.279L699.481,360.571L698.344,359.294L697.457,358.72L695.821,359.706L693.858,359.999L689.545,359.873L687.618,360.723L684.817,361.682L683.195,362.824L682.716,364.571L682.694,366.029L682.446,368.282L682.288,369.915L682.404,371.229L681.749,372.331L680.248,373.538L677.874,374.338L677.857,378.041L678.993,379.228L680.165,380.376L681.92,381.237L683.259,382.549L683.527,384.152L683.542,385.946L682.615,387.626L683.542,389.413L683.582,390.689L682.825,392.56L682.732,393.786L683.063,394.868L684.007,396.906L685.785,397.377L686.217,398.753L686.438,399.905L686.171,401.102L685.466,402.094L685.871,403.752L686.184,405.342L685.744,407.087L683.954,408.383L683.87,410.197L683.958,412.222L682.439,413.408L681.554,414.913L680.632,416.138L679.674,417.143L679.29,418.97L678.118,419.846L678.389,421.39L677.954,422.845L677.941,424.261L677.878,425.75L677.758,427.433L677.433,428.425L676.081,428.311L674.666,428.472L673.014,429.194L673.115,430.875L672.614,432.804L671.325,433.83L669.758,434.41L669.052,436.495L668.689,438.029L668.745,439.492L668.501,441.291L667.372,442.665L666.642,443.752L665.356,443.842L663.206,443.766L662.165,445.175L659.705,446.976L657.684,449.066L656.353,451.268L654.56,452.889L652.018,454.609L650.02,455.329L648.26,456.301L647.617,458.313L650.126,465.13L647.413,471.025L645.106,471.474L641.867,471.866L638.621,473.478L637.137,476.377L638.193,482.016L636.48,490.657L633.857,492.67L636.764,496.413L638.463,502.312L639.007,504.484L642.778,505.739L644.803,506.444L647.836,508.805L649.2,513.201L647.815,515.739L643.883,519.585L643.154,523.24L642.583,524.212L640.851,526.31L640.64,528.55L640.361,529.634L640.207,530.284L640.18,530.659L640.456,530.817L639.868,531.458L638.817,531.184L636.965,532L636.358,531.781L635.317,531.596L633.601,530.399L633.708,529.652L634.048,528.105L632.843,527.627L632.064,527.154L630.956,527.506L629.021,528.183L627.98,527.022L627.113,526.357L623.873,526.458L622.954,527.118L622.293,528.226L621.619,528.287L620.173,528.476L619.576,528.89L622.299,522.225L623.584,519.735L622.801,516.031L618.851,507.263L616.349,497.427L611.931,496.622L608.911,493.753L607.446,492.399L606.526,490.573L604.193,489.742L599.393,488.726L602.328,480.607L605.508,474.358L604.318,464.342L603.64,463.8L603.137,463.176L602.548,462.553L594.584,461.745L592.943,461.264L592.507,460.859L581.508,461.196L580.805,461.086L580.084,461.131L579.657,460.615L579.178,460.093L578.914,459.547L578.794,459.017L577.491,459.214L576.155,458.825L573.817,456.491L572.209,455.837L570.045,456.037L568.877,456.109L567.651,456.17L566.871,454.492L565.363,451.953L563.964,449.904L565.047,448.318L563.92,447.513L561.247,446.158L557.336,440.137L554.685,437.08L551.062,431.213L549.331,430.98L547.373,429.773L544.315,428.904L542.177,428.192L541.721,426.707L540.52,424.964L538.91,424.437L537.788,423.484L538.188,422.109L539.015,421.071L537.448,416.041L536.129,413.595L535.168,411.503L536.867,410.47L537.346,409.077L537.492,407.539L538.735,406.184L540.05,404.484L541.162,403.361L541.361,401.493L541.355,399.427L541.483,397.067L542.299,395.353L541.984,393.085L541.769,391.192L540.839,389.559L541.786,388.144L542.049,386.438L541.374,384.617L541.898,382.837L540.836,381.46L540.214,379.83L540.509,378.154L541.013,376.565L541.502,374.866L540.894,373.306L538.276,370.141L536.406,370.11L534.569,370.738L532.746,371.311L530.972,371.896L529.504,372.642L528.124,373.042L526.272,373.07L522.202,375.065L521.096,376.345L519.586,377.9L517.539,379.435L513.388,380.7L512.684,382.104L511.108,384.034L512.837,385.09L515.193,386.162L515.407,388.405L515.293,390.785L514.636,392.149L511.243,393.872L509.732,395.192L507.838,394.761L506.425,395.6L506.721,397.463L506.191,399.3L505.151,399.694L503.213,401.298L501.472,401.335L500.393,402.344L499.494,403.648L499.717,404.648L498.716,405.923L497.696,407.705L494.824,410.81L492.239,411.763L489.719,412.178L487.666,411.833L485.26,410.873L483.848,411.784L482.562,412.761L481.373,414.326L480.544,415.99L478.813,417.126L477.56,418.581L475.923,419.578L474.886,421.278L477.941,423.187L480.098,424.701L480.486,426.888L482.082,428.301L483.407,429.526L487.106,436.875L489.422,442.323L488.4,442.913L486.716,446.414L487.383,448.806L487.148,450.582L486.152,452.137L484.345,452.363L482.154,453.059L480.737,454.077L480.754,455.992L479.775,458.104L478.237,458.915L476.376,459.753L474.837,460.256L472.781,460.136L471.176,460.829L469.483,461.106L467.176,461.475L466.584,462.374L466.088,463.762L465.978,465.142L465.494,466.651L464.757,467.9L464.51,469.472L464.866,470.772L465.416,472.177L465.815,472.994L466.007,473.891L466.351,474.792L466.849,475.645L466.172,476.225L465.006,476.643L463.92,477.67L463.152,479.112L463.662,480.59L462.993,483.206L461.304,483.74L460.302,485.091L459.486,486.95L457.711,487.319L456.025,486.954L454.361,487.381L452.596,487.348L450.612,487.326L448.55,487.48L446.631,487.706L444.839,487.445L443.238,490.406L441.592,492.402L439.698,493.266L440.065,495.536L439.628,498.172L438.18,499.847L438.319,503.132L430.316,505.141L421.798,503.852L420.041,502.28L417.059,501.579L410.901,504.71L410.153,500.359L408.589,498.499L406.5,497.942L404.741,496.575L404.008,494.804L402.598,493.139L400.736,492.73L399.785,493.176L398.384,494.011L396.632,494.059L394.696,493.622L393.459,494.051L391.867,494.084L389.605,493.989L388.263,493.475L386.168,489.873L381.889,490.616L381.446,491.818L381.195,493.317L381.669,495.417L381.213,497.446L378.903,497.58L376.364,496.193L373.078,497.1L370.568,498.385L368.986,500.466L369.425,502.461L366.931,502.804L365.164,503.581L363.613,504.654L362.492,506.303L361.532,507.406L360.238,508.088L358.789,509.147L356.594,508.995L354.638,512.034L352.634,511.983L350.648,510.757L349.338,510.275L346.693,507.884L344.623,508.887L342.158,508.775L340.026,507.301L338.085,506.301L336.931,507.382L336.146,508.688L335.577,509.839L335.059,511.273L333.614,512.265L331.878,514.389L330.479,513.57L328.052,514.184L325.731,514.172L324.146,515.806L322.418,517.142L321.354,519.496L321.095,521.538L318.998,521.679L317.521,520.851L315.44,517.655L313.915,516.905L311.543,517.84L310.134,519.228L308.766,520.696L307.458,521.789L305.802,522.124L304.268,521.546L303.78,520.426L303.159,518.84L302.737,516.992L300.628,515.121L299.001,512.39L298.035,509.798L296.823,508.168L295.365,506.896L294.326,504.841L293.679,503.467L293.112,502.189L293.233,500.813L293.416,499.556L293.367,498.012L292.002,497.396L290.772,497.075L289.282,495.656L288.415,494.072L290.182,492.746L290.23,490.662L288.928,488.528L288.076,486.809L286.202,486.709L284.181,485.423L283.986,483.72L283.573,481.856L279.952,478.184L276.672,473.686L275.825,472.907L275.814,471.783L276.036,470.716L272.591,471.872L271.451,473.093L270.624,474.219L269.074,474.553L267.983,475.836L265.46,474.86L265.207,471.765L266.025,469.379L267.774,467.636L267.877,466.106L267.007,463.838L266.993,462.325L268.111,460.611L268.342,459.102L269.213,455.979L267.361,455.496L264.628,455.155L261.876,455.006L260.148,454.634L258.818,453.407L257.649,453.453L256.23,453.755L254.594,454.062L253.157,452.624L251.437,451.045L250.39,448.078L250.688,446.056L251.704,444.554L253.126,442.719L253.348,437.72L253.454,433.951L254.451,432.571L255.745,430.872L255.742,428.521L258.011,427.119L261.636,421.505L262.376,414.12L260.154,413.805L258.652,412.257L257.159,410.322L255.971,408.204L253.232,406.206L252.211,406.368L251.111,403.165L249.704,403.279L249.068,401.717L247.653,399.489L247.443,395.752L247.85,395.253L248.312,395.013L248.984,394.616L249.691,394.654L250.482,394.563L251.075,394.062L251.622,393.294L252.177,392.533L252.906,391.821L253.095,390.944L252.735,390.252L252.411,389.132L252.672,388.025L252.967,387.731L151.164,408.398L155.955,410.701L156.015,411.206L156.158,411.844L156.454,412.261L156.313,412.985L156.607,413.252L156.847,413.486L156.727,414.37L156.088,414.873L155.142,415.147L154.701,415.898L154.383,416.218L154.464,416.636L154.641,417.758L158.305,423.375L160.404,424.118L161.415,423.347L164.069,420.451L164.525,420.709L164.314,421.318L164.161,421.726L164.261,422.168L164.387,422.486L164.83,422.621L165.403,422.73L166.169,422.423L166.788,422.473L166.691,423.888L166.24,426.805L161.147,432.632L158.404,433.582L156.338,435.11L155.249,435.383L154.869,435.22L153.918,434.915L153.151,435.422L152.591,435.715L151.867,436.233L151.352,436.84L150.714,437.224L150.366,437.862L150.044,437.997L149.875,438.294L148.978,438.453L148.655,438.753L148.047,439.863L147.594,440.361L146.88,440.637L146.295,441.171L145.755,441.393L145.813,444.972L137.767,449.961L137.295,450.459L135.802,451.432L133.707,450.933L132.163,450.89L131.315,450.567L130.152,450.62L119.96,451.633L118.977,452.384L118.726,451.912L118.264,451.824L117.762,451.578L116.943,451.202L116.462,451.068L115.618,450.827L114.995,451.049L114.641,450.975L114.023,451.012L113.439,451.047L113.039,450.943L112.665,450.832L112.127,450.582L111.89,450.496L110.842,450.846L109.897,451.923L108.073,453.568L107.663,453.629L106.203,453.962L107.124,451.789L108.326,447.534L109.93,443.166L110.763,443.92L111.483,442.232L111.473,441.82L111.733,441.675L111.948,441.351L112.103,441.055L112.104,440.783L111.824,440.459L111.019,439.619L106.726,437.201L106.843,436.978L107.142,436.609L107.46,436.527L107.747,436.241L108.164,435.987L108.346,435.812L108.06,435.482L107.809,435.199L108.36,433.085L109.939,432.282L110.417,432.274L111.091,432.489L111.592,432.628L111.846,430.812L112.618,430.965L113.395,431.122L114.133,430.558L114.3,429.884L114.74,429.246L115.186,428.952L115.849,428.494L116.456,428.451L116.9,428.336L117.333,428.209L121.338,428.201L123.495,425.22L124.306,425.487L124.557,425.836L125.688,426.14L127.623,424.745L134.453,423.255L134.291,422.407L132.721,419.515L131.792,417.654L131.419,417.204L131.101,416.468L132.647,413.077L133.347,412.828L133.766,412.814L134.006,412.11L133.832,411.106L133.851,410.058L133.727,409.384L133.865,408.54L134.305,407.825L134.854,407.02L135.322,405.919L136.298,404.302L136.685,403.378L136.849,402.411L137.128,401.497L138.369,401.031L139.438,399.698L140.239,398.905L140.485,397.843L142.541,394.419L140.955,392.25L140.889,391.557L140.373,391.671L132.803,386.67ZM627.371,495.482L629.058,495.926L629.071,495.936L629.132,495.968L629.156,495.981L629.178,495.999L629.148,496.053L629.14,496.075L629.128,496.11L629.108,496.177L629.103,496.207L629.156,496.219L629.209,496.227L629.263,496.229L629.297,496.257L629.311,496.256L629.324,496.249L629.369,496.246L629.39,496.247L629.411,496.257L629.439,496.267L629.475,496.27L629.547,496.279L629.564,496.278L629.575,496.274L629.597,496.258L629.61,496.244L629.625,496.231L629.642,496.221L629.663,496.215L629.712,496.217L629.727,496.214L629.75,496.204L629.773,496.195L629.795,496.189L629.816,496.184L629.838,496.182L629.881,496.182L629.913,496.18L629.925,496.181L629.944,496.186L629.987,496.191L630.023,496.188L630.064,496.185L630.089,496.186L630.107,496.191L630.122,496.198L630.16,496.213L630.189,496.231L630.222,496.244L630.265,496.256L630.312,496.271L630.336,496.273L630.342,496.278L630.345,496.272L630.569,495.749L630.593,495.17L630.644,494.654L630.796,494.58L630.96,494.045L630.99,493.925L630.681,493.782L630.665,493.772L630.636,493.741L630.629,493.728L630.626,493.715L630.61,493.697L630.615,493.681L630.639,493.683L630.643,493.682L630.643,493.671L630.646,493.664L630.652,493.633L630.651,493.629L630.643,493.62L630.642,493.607L630.634,493.594L630.625,493.57L630.583,493.372L630.515,492.881L630.463,492.719L630.473,492.335L630.482,491.923L630.482,491.777L630.493,491.742L630.517,491.715L630.572,491.5L630.6,491.409L630.601,491.395L630.596,491.367L630.605,491.344L630.624,491.322L630.627,491.309L630.636,491.276L630.648,491.174L630.671,491.073L630.678,491.042L630.653,490.964L630.624,490.924L628.855,490.645L628.473,491.728L628.345,492.645L628.063,493.222L627.881,493.594L627.792,494.139L627.549,494.709L627.492,495.007ZM585.527,56.861L580.971,51.296L576.342,51.393L576.185,57.657L578.437,57.817L580.066,56.332L582.211,56.214Z" fill="rgba(255,255,255,0.52)" stroke="rgba(125,138,122,0.7)" stroke-width="1.25"/>
</svg>
